<?xml version="1.0" encoding="UTF-8"?>
<svg version="1.1" xmlns="http://www.w3.org/2000/svg" width="1487" height="1803">
<path d="M0,0 L96,0 L112,2 L150,5 L167,8 L175,10 L198,11 L209,13 L222,19 L239,22 L269,30 L296,36 L316,43 L332,51 L341,59 L355,69 L367,79 L379,88 L385,96 L394,107 L398,113 L407,120 L414,126 L421,131 L430,142 L437,150 L444,161 L451,170 L460,178 L467,190 L476,200 L491,229 L506,252 L515,268 L518,279 L521,284 L521,287 L525,289 L531,296 L534,306 L538,312 L538,324 L524,331 L504,338 L495,342 L476,347 L450,360 L435,366 L412,371 L397,376 L386,382 L380,386 L364,392 L347,402 L343,403 L350,417 L359,423 L364,429 L370,446 L380,461 L391,486 L400,510 L411,535 L412,538 L413,554 L425,596 L428,611 L430,633 L435,654 L438,675 L444,689 L448,702 L457,722 L457,738 L453,747 L447,752 L441,752 L436,749 L433,744 L433,742 L427,741 L422,735 L419,727 L415,710 L410,698 L403,688 L395,680 L383,663 L373,653 L366,643 L355,631 L342,621 L332,616 L320,610 L312,600 L302,595 L275,586 L261,580 L240,575 L226,574 L216,571 L203,571 L195,573 L168,573 L154,576 L128,585 L119,591 L111,599 L105,608 L108,609 L109,613 L122,609 L159,609 L175,613 L180,615 L191,617 L210,625 L252,637 L260,640 L270,644 L281,651 L299,664 L317,674 L321,679 L329,684 L338,688 L349,698 L354,702 L361,710 L368,716 L384,727 L394,735 L400,743 L402,752 L406,757 L409,780 L414,801 L416,805 L418,831 L422,842 L425,847 L426,869 L434,904 L440,926 L444,941 L447,959 L451,969 L454,987 L457,1008 L463,1037 L465,1073 L466,1101 L468,1113 L469,1135 L470,1143 L471,1186 L476,1233 L477,1270 L478,1282 L478,1311 L473,1317 L470,1318 L466,1316 L461,1301 L449,1277 L439,1263 L434,1254 L425,1235 L419,1226 L414,1217 L410,1212 L397,1184 L389,1164 L381,1148 L377,1142 L369,1132 L358,1113 L352,1104 L347,1099 L333,1084 L323,1073 L316,1065 L306,1057 L295,1048 L284,1037 L267,1026 L257,1017 L241,1001 L233,994 L222,983 L210,975 L201,967 L194,959 L185,949 L169,933 L159,925 L145,915 L131,907 L117,895 L104,882 L96,875 L88,868 L78,860 L60,849 L50,843 L29,829 L10,820 L-4,816 L-18,809 L-29,805 L-37,805 L-53,807 L-69,815 L-96,831 L-114,841 L-122,851 L-124,851 L-124,853 L-132,860 L-141,869 L-149,879 L-151,878 L-151,872 L-157,871 L-168,855 L-172,844 L-175,829 L-183,813 L-190,801 L-200,786 L-205,776 L-213,765 L-221,751 L-227,734 L-234,707 L-241,686 L-244,675 L-257,677 L-284,683 L-301,689 L-311,689 L-320,688 L-336,688 L-358,691 L-377,692 L-389,695 L-405,700 L-416,704 L-424,705 L-436,705 L-436,702 L-442,704 L-447,701 L-448,693 L-451,689 L-454,682 L-455,680 L-457,654 L-460,638 L-466,620 L-471,595 L-473,571 L-474,567 L-475,530 L-477,522 L-478,479 L-480,477 L-480,464 L-479,457 L-480,456 L-480,446 L-477,433 L-476,417 L-473,409 L-471,396 L-469,386 L-458,358 L-454,349 L-446,335 L-431,301 L-418,275 L-409,259 L-397,236 L-388,223 L-377,209 L-366,196 L-355,182 L-344,170 L-330,156 L-323,148 L-312,137 L-304,130 L-291,119 L-280,112 L-262,99 L-244,88 L-228,80 L-218,75 L-195,62 L-174,51 L-161,45 L-147,39 L-134,34 L-122,28 L-103,22 L-80,17 L-61,14 L-40,9 L-16,4 Z M22,27 L1,30 L-24,38 L-48,43 L-65,46 L-73,47 L-98,52 L-107,53 L-130,65 L-153,78 L-178,91 L-202,105 L-212,113 L-226,125 L-234,132 L-251,144 L-253,145 L-263,145 L-273,153 L-283,162 L-297,174 L-308,183 L-316,191 L-327,205 L-341,223 L-355,243 L-366,260 L-380,282 L-392,300 L-400,319 L-410,337 L-420,358 L-427,375 L-426,377 L-426,390 L-434,429 L-438,449 L-439,459 L-439,481 L-434,501 L-428,524 L-425,550 L-424,567 L-420,588 L-419,596 L-418,618 L-414,644 L-410,650 L-405,657 L-394,656 L-319,641 L-283,632 L-262,626 L-252,626 L-251,635 L-250,635 L-250,611 L-258,560 L-261,545 L-267,541 L-266,532 L-264,516 L-259,503 L-255,490 L-252,472 L-250,456 L-244,446 L-236,430 L-233,427 L-223,405 L-214,395 L-214,393 L-210,391 L-202,385 L-196,378 L-188,371 L-183,366 L-183,364 L-179,362 L-166,354 L-155,347 L-145,338 L-125,327 L-108,316 L-90,306 L-63,295 L-42,286 L-29,277 L-18,273 L-13,272 L17,272 L31,267 L59,267 L90,268 L111,270 L151,278 L190,282 L206,286 L223,292 L231,296 L242,301 L249,304 L255,309 L265,313 L281,321 L291,326 L300,334 L305,341 L320,352 L330,374 L331,377 L337,375 L345,376 L361,368 L382,356 L391,352 L403,349 L414,342 L423,339 L436,336 L458,324 L464,322 L483,320 L504,312 L503,307 L499,301 L494,293 L492,282 L481,266 L476,255 L472,245 L462,227 L450,204 L445,194 L440,190 L434,181 L422,170 L415,159 L396,145 L385,136 L380,131 L371,121 L362,115 L358,110 L351,108 L349,105 L342,103 L340,99 L333,95 L321,92 L309,86 L292,74 L273,62 L268,58 L251,52 L237,48 L208,43 L194,39 L192,38 L182,37 L133,36 L77,33 L47,28 Z M-391,270 Z M-392,271 Z M-393,273 Z M-394,275 Z M-395,276 L-394,278 Z M-396,278 L-395,280 Z M-397,280 L-396,282 Z M-398,282 L-397,284 Z M-399,284 L-398,286 Z M-400,286 L-399,288 Z M-401,288 L-400,290 Z M-402,291 Z M26,300 Z M181,305 Z M183,306 Z M186,307 Z M238,318 Z M41,324 L-2,330 L-17,331 L-35,339 L-61,348 L-77,357 L-94,365 L-117,374 L-127,378 L-143,387 L-155,396 L-165,405 L-174,416 L-183,421 L-193,431 L-197,448 L-205,469 L-218,495 L-223,504 L-223,535 L-219,555 L-219,565 L-220,569 L-220,591 L-218,597 L-219,597 L-219,621 L-217,625 L-215,634 L-209,649 L-201,668 L-198,683 L-195,708 L-188,732 L-180,748 L-172,762 L-165,770 L-161,778 L-159,778 L-157,791 L-151,806 L-145,818 L-141,816 L-127,802 L-117,795 L-101,787 L-86,777 L-73,771 L-58,768 L-45,766 L-37,766 L-13,770 L1,774 L17,775 L25,781 L33,785 L37,788 L39,788 L40,791 L54,801 L66,812 L84,830 L104,839 L126,850 L140,858 L157,867 L174,879 L188,890 L196,898 L204,905 L220,920 L234,931 L248,943 L259,952 L268,960 L275,968 L288,979 L302,990 L317,1000 L332,1014 L345,1030 L355,1045 L365,1064 L373,1080 L376,1083 L378,1083 L380,1088 L390,1107 L399,1124 L409,1139 L416,1157 L422,1175 L427,1186 L428,1198 L432,1206 L436,1210 L441,1223 L442,1219 L439,1211 L447,1211 L455,1206 L457,1202 L457,1177 L455,1161 L452,1150 L451,1149 L449,1113 L446,1097 L446,1089 L444,1080 L443,1056 L440,1035 L440,1024 L433,982 L426,946 L421,929 L416,912 L414,896 L413,876 L411,867 L409,861 L406,852 L403,850 L400,834 L391,815 L390,807 L394,805 L393,796 L388,783 L380,765 L372,756 L365,745 L352,732 L345,724 L333,715 L308,703 L292,694 L285,686 L270,682 L258,677 L236,666 L222,659 L213,655 L182,651 L169,647 L152,638 L140,634 L135,633 L96,633 L85,635 L75,635 L73,629 L73,626 L69,622 L69,611 L74,599 L76,594 L76,592 L92,576 L102,574 L108,569 L130,566 L143,561 L168,560 L203,551 L228,556 L258,564 L284,572 L301,580 L317,586 L331,596 L344,605 L369,617 L379,624 L384,629 L391,639 L397,647 L409,661 L418,671 L419,671 L418,658 L416,650 L409,633 L403,612 L398,595 L386,559 L377,535 L363,505 L355,485 L351,472 L347,456 L338,434 L332,422 L326,415 L320,402 L316,393 L306,384 L302,379 L297,372 L287,366 L270,361 L258,358 L239,353 L218,348 L200,342 L179,338 L147,334 L121,332 L91,327 L54,324 Z M122,569 Z M120,570 Z M118,571 Z M116,572 L105,579 L99,586 L103,584 L115,575 L118,572 Z M98,586 Z M97,587 Z M96,588 Z M95,589 Z M91,614 L89,617 L93,618 Z M93,618 Z M-237,621 L-236,630 L-234,627 L-236,621 Z M381,649 L389,665 L392,667 L390,661 L384,650 Z M419,671 Z M384,736 Z M385,737 L386,739 Z M386,739 L387,741 Z M442,1223 L443,1225 Z M443,1226 L444,1228 Z " fill="#000000" transform="translate(675,301)"/>
<path d="M0,0 L5,0 L3,2 L-3,2 Z " fill="#000000" transform="translate(605,348)"/>
</svg>
